<?xml version="1.0" encoding="iso-8859-1"?>
<!-- Generator: Adobe Illustrator 19.0.0, SVG Export Plug-In . SVG Version: 6.00 Build 0)  -->
<svg version="1.1" id="Layer_1" xmlns="http://www.w3.org/2000/svg" xmlns:xlink="http://www.w3.org/1999/xlink" x="0px" y="0px"
	 viewBox="0 0 512 512" style="enable-background:new 0 0 512 512;" xml:space="preserve">
<circle style="fill:#FFC843;" cx="255.999" cy="255.998" r="247.74"/>
<circle style="fill:#D49000;" cx="255.999" cy="255.998" r="201.044"/>
<path style="fill:#FFC843;" d="M259.101,107.317c9.935,0,17.814,7.879,17.814,17.814v4.796c18.5,2.741,34.944,8.222,49.675,16.444
	c6.51,3.768,12.334,10.277,12.334,20.556c0,13.017-10.278,22.953-23.296,22.953c-4.11,0-8.222-1.027-11.991-3.083
	c-9.592-5.139-19.185-9.25-28.435-11.648v52.074c52.073,14.045,74.342,35.286,74.342,73.656s-29.462,63.036-72.629,67.831v18.158
	c0,9.935-7.879,17.815-17.814,17.815c-9.935,0-17.814-7.88-17.814-17.815v-18.5c-24.324-3.083-47.278-11.648-67.49-23.981
	c-7.194-4.453-11.648-11.305-11.648-20.555c0-13.36,10.278-23.295,23.639-23.295c4.454,0,9.25,1.713,13.361,4.453
	c14.389,9.25,28.093,15.76,43.851,19.185v-54.472c-49.333-13.36-73.657-32.203-73.657-72.971c0-37.685,28.778-63.036,71.944-67.49
	v-4.111C241.286,115.196,249.166,107.317,259.101,107.317z M243,218.315v-46.249c-16.444,2.399-23.639,10.621-23.639,21.583
	C219.361,204.269,224.157,211.463,243,218.315z M275.203,278.269v47.62c16.102-2.399,24.324-9.935,24.324-22.269
	C299.526,292.315,293.703,284.777,275.203,278.269z"/>
<path style="fill:#1E252B;" d="M437.02,74.981C388.668,26.628,324.381,0,256,0S123.333,26.628,74.981,74.981
	C26.629,123.332,0.001,187.62,0.001,255.999s26.628,132.668,74.981,181.02S187.62,512,256,512s132.668-26.629,181.019-74.981
	c48.352-48.352,74.981-112.639,74.981-181.02S485.372,123.332,437.02,74.981z M425.341,425.34
	C380.108,470.573,319.969,495.484,256,495.484S131.892,470.573,86.659,425.34c-45.232-45.232-70.142-105.372-70.142-169.341
	S41.427,131.891,86.66,86.66C131.892,41.427,192.032,16.516,256,16.516S380.108,41.427,425.341,86.66
	c45.233,45.232,70.144,105.372,70.144,169.34C495.485,319.968,470.574,380.109,425.341,425.34z M256,46.692
	c-115.413,0-209.308,93.895-209.308,209.308S140.587,465.308,256,465.308s209.308-93.895,209.308-209.309
	C465.309,140.588,371.413,46.692,256,46.692z M256,448.792c-106.306,0-192.792-86.487-192.792-192.793
	c0-106.305,86.486-192.792,192.792-192.792s192.792,86.486,192.792,192.792C448.793,362.305,362.306,448.792,256,448.792z"/>
<g>
</g>
<g>
</g>
<g>
</g>
<g>
</g>
<g>
</g>
<g>
</g>
<g>
</g>
<g>
</g>
<g>
</g>
<g>
</g>
<g>
</g>
<g>
</g>
<g>
</g>
<g>
</g>
<g>
</g>
</svg>
