<svg id="Layer_5" enable-background="new 0 0 64 64" height="512" viewBox="0 0 64 64" width="512" xmlns="http://www.w3.org/2000/svg"><g fill="#b4dd7f"><path d="m10 44h4v18h-4z"/><path d="m2 48h4v14h-4z"/><path d="m18 40h4v22h-4z"/></g><path d="m58 2h4v22h-4z" fill="#ff826e"/><path d="m50 6h4v18h-4z" fill="#ff826e"/><path d="m42 10h4v14h-4z" fill="#ff826e"/><path d="m34 18c0 .33-.01.65-.03.97-.22 3.75-1.74 7.15-4.09 9.76h-.01c-2.93 3.24-7.16 5.27-11.87 5.27-8.84 0-16-7.16-16-16s7.16-16 16-16 16 7.16 16 16z" fill="#ffc729"/><circle cx="18" cy="18" fill="#fcd770" r="10"/><path d="m30.03 45.03c.5-8.39 7.46-15.03 15.97-15.03 8.84 0 16 7.16 16 16s-7.16 16-16 16-16-7.16-16-16c0-.33.01-.65.03-.97z" fill="#ffc729"/><path d="m46 36c5.52 0 10 4.48 10 10s-4.48 10-10 10-10-4.48-10-10 4.48-10 10-10z" fill="#fcd770"/><path d="m46 57c6.065 0 11-4.935 11-11s-4.935-11-11-11-11 4.935-11 11 4.935 11 11 11zm0-20c4.962 0 9 4.038 9 9s-4.038 9-9 9-9-4.038-9-9 4.038-9 9-9z"/><path d="m46 29c-7.364 0-13.855 4.697-16.153 11.688l1.9.625c2.027-6.169 7.755-10.313 14.253-10.313 8.271 0 15 6.729 15 15s-6.729 15-15 15c-7.768 0-14.174-5.936-14.925-13.51l2.218 2.218 1.414-1.414-4.707-4.708-4.707 4.707 1.414 1.414 2.361-2.361c.467 5.917 3.965 10.991 8.949 13.654h-15.017v-22h-6v22h-2v-18h-6v18h-2v-14h-6v16h45c9.374 0 17-7.626 17-17s-7.626-17-17-17zm-41 32h-2v-12h2zm14-20h2v20h-2zm-8 4h2v16h-2z"/><path d="m45 53h2v-2.184c1.161-.414 2-1.514 2-2.816 0-.768-.29-1.469-.766-2 .476-.531.766-1.232.766-2 0-1.302-.839-2.402-2-2.816v-2.184h-2v2h-2v10h2zm0-10h1c.551 0 1 .449 1 1s-.449 1-1 1h-1zm0 4h1c.551 0 1 .449 1 1s-.449 1-1 1h-1z"/><path d="m18 7c-6.065 0-11 4.935-11 11s4.935 11 11 11 11-4.935 11-11-4.935-11-11-11zm0 20c-4.962 0-9-4.038-9-9s4.038-9 9-9 9 4.038 9 9-4.038 9-9 9z"/><path d="m19 15c.551 0 1 .449 1 1h2c0-1.654-1.346-3-3-3v-2h-2v2h-3v3c0 1.654 1.346 3 3 3h2c.551 0 1 .449 1 1v1h-3c-.551 0-1-.449-1-1h-2c0 1.654 1.346 3 3 3v2h2v-2h3v-3c0-1.654-1.346-3-3-3h-2c-.551 0-1-.449-1-1v-1z"/><path d="m57 1v22h-2v-18h-6v18h-2v-14h-6v14h-1.222l-6.904 3.222c.506-.918.942-1.885 1.279-2.909l-1.9-.625c-2.027 6.168-7.755 10.312-14.253 10.312-8.271 0-15-6.729-15-15s6.729-15 15-15c7.768 0 14.174 5.936 14.925 13.51l-2.218-2.218-1.414 1.414 4.707 4.708 4.707-4.707-1.414-1.414-2.361 2.361c-.69-8.745-8.012-15.654-16.932-15.654-9.374 0-17 7.626-17 17s7.626 17 17 17c4.857 0 9.326-2.052 12.471-5.449l9.751-4.551h22.778v-24zm-6 6h2v16h-2zm-8 4h2v12h-2zm18 12h-2v-20h2z"/></svg>